<svg width="201" height="44" viewBox="0 0 201 44" fill="none" xmlns="http://www.w3.org/2000/svg">
<path fill-rule="evenodd" clip-rule="evenodd" d="M51.2127 11.0829C50.4903 12.1546 50.1383 13.4332 50.2104 14.7236L50.2565 14.6891C50.2565 17.6846 51.4777 18.8367 53.229 18.8367C53.6387 18.8422 54.045 18.7608 54.4211 18.598C54.7972 18.4351 55.1345 18.1945 55.4109 17.892C55.6873 17.5894 55.8966 17.2318 56.0249 16.8426C56.1532 16.4534 56.1977 16.0414 56.1553 15.6338C56.1553 13.9863 55.3604 12.6729 53.517 12.6729C52.8676 12.6906 52.2333 12.873 51.6736 13.2028C51.7281 12.7524 51.8815 12.3197 52.1229 11.9355C52.4907 11.4145 53.085 11.2558 54.9102 10.7686C55.1431 10.7064 55.3963 10.6388 55.6714 10.5645V9.28564C55.3491 9.37025 55.052 9.44688 54.7774 9.51771C52.6959 10.0545 51.9049 10.2585 51.2127 11.0829ZM53.2866 13.7789C54.4041 13.7789 54.7382 14.7121 54.7382 15.726H54.7497C54.7497 16.832 54.2198 17.7307 53.2174 17.7307C52.2151 17.7307 51.616 16.809 51.616 14.7928V14.2858C52.1217 13.9799 52.6961 13.8056 53.2866 13.7789Z" fill="black"/>
<path d="M36.293 9.90796H37.6986V13.7445H37.7216L40.8438 9.90796H42.4914L38.9083 14.2054L42.6872 18.6986H40.9821L37.7216 14.7929H37.6986V18.6986H36.293V9.90796Z" fill="black"/>
<path d="M47.1458 18.9869C46.2241 21.5216 45.2103 21.8557 44.1042 21.8557C43.6488 21.8626 43.1971 21.7722 42.7793 21.5907L43.1249 20.4386C43.41 20.5861 43.7256 20.665 44.0466 20.669C44.7955 20.669 45.3946 20.1621 45.89 18.6413L43.0673 12.3853H44.5536L46.5237 16.9937L48.079 12.3853H49.5307L47.1458 18.9869Z" fill="black"/>
<path fill-rule="evenodd" clip-rule="evenodd" d="M61.0867 18.0304C60.5991 18.5237 59.9369 18.8051 59.2433 18.8138C58.9791 18.8295 58.7144 18.7911 58.4655 18.701C58.2166 18.6109 57.9886 18.471 57.7956 18.2899C57.6026 18.1087 57.4485 17.8901 57.3429 17.6474C57.2372 17.4047 57.1821 17.143 57.181 16.8782C57.1672 16.5192 57.2607 16.1642 57.4494 15.8584C57.6382 15.5527 57.9138 15.3101 58.241 15.1616C58.7495 14.9404 59.2994 14.8305 59.8539 14.839H61.0061V14.574C61.0061 13.7445 60.4876 13.4219 59.7387 13.4219C59.1493 13.4243 58.5716 13.5877 58.0682 13.8943L57.5843 12.9726C58.2924 12.5359 59.103 12.2935 59.9346 12.2698C61.5015 12.2698 62.3771 12.9956 62.3771 14.574V16.8782C62.3477 17.476 62.3863 18.0751 62.4923 18.664H61.2941L61.0867 18.0304ZM60.0383 15.7261C59.689 15.7175 59.3423 15.7884 59.0244 15.9335C58.884 16.0143 58.7687 16.1324 58.6914 16.2748C58.6141 16.4172 58.5778 16.5782 58.5866 16.74C58.581 16.8736 58.6041 17.0068 58.6545 17.1307C58.7048 17.2545 58.7812 17.3661 58.8785 17.4579C58.9757 17.5496 59.0915 17.6194 59.2181 17.6626C59.3446 17.7057 59.479 17.7211 59.612 17.7078C60.1279 17.6867 60.6171 17.473 60.983 17.1087V15.7261H60.0383Z" fill="black"/>
<path d="M65.4068 12.3853H64.0127V18.6989H65.4068V15.9453H68.0797V18.6989H69.4622V12.3853H68.0797V14.7356H65.4068V12.3853Z" fill="black"/>
<path d="M70.7992 15.588C70.7867 15.1528 70.8624 14.7195 71.0219 14.3144C71.1813 13.9092 71.4211 13.5405 71.7268 13.2304C72.0325 12.9204 72.3979 12.6755 72.8008 12.5104C73.2037 12.3453 73.6358 12.2635 74.0712 12.2699C74.6546 12.261 75.2303 12.4039 75.7418 12.6847V13.8368C75.2803 13.547 74.7425 13.4025 74.1979 13.422C73.9203 13.4221 73.6457 13.4806 73.3921 13.5936C73.1384 13.7066 72.9114 13.8716 72.7256 14.078C72.5399 14.2844 72.3996 14.5276 72.3138 14.7917C72.228 15.0558 72.1987 15.3349 72.2278 15.6111C72.2278 16.9821 72.9767 17.754 74.1173 17.754C74.646 17.751 75.1639 17.6036 75.615 17.3277L76.0183 18.284C75.4006 18.6582 74.6896 18.85 73.9675 18.837C73.5414 18.8546 73.1163 18.7816 72.7204 18.623C72.3246 18.4643 71.9668 18.2236 71.6707 17.9166C71.3746 17.6096 71.1469 17.2434 71.0026 16.842C70.8584 16.4406 70.8008 16.0133 70.8337 15.588H70.7992Z" fill="black"/>
<path d="M78.4487 12.3853H77.0547V18.6874H78.4257V16.0029H79.428C79.6124 16.0029 79.7967 16.1757 80.0156 16.6366L80.8797 18.6874H82.4236L81.2714 16.3025C81.0525 15.8532 80.8567 15.5997 80.5226 15.496C80.8862 15.2821 81.038 14.8166 81.1802 14.3809C81.2677 14.1127 81.3515 13.8557 81.4788 13.6756C81.531 13.6033 81.6006 13.5454 81.6812 13.5071C81.7617 13.4688 81.8506 13.4515 81.9397 13.4567C82.0504 13.4405 82.163 13.4405 82.2738 13.4567V12.3046C82.083 12.2489 81.885 12.2217 81.6862 12.224C81.46 12.207 81.2335 12.2516 81.0307 12.353C80.8278 12.4545 80.6562 12.6089 80.5341 12.8C80.3465 13.0793 80.2298 13.4371 80.118 13.7799C79.9207 14.3846 79.7385 14.943 79.2092 14.943H78.4487V12.3853Z" fill="black"/>
<path d="M83.4951 12.3853H84.8546V16.7863C85.0505 16.4522 85.327 16.0144 85.7072 15.4729L87.7925 12.3853H89.129V18.6989H87.7925V14.2978C87.6082 14.6088 87.3202 15.0697 86.9515 15.6112L84.8085 18.6989H83.4951V12.3853Z" fill="black"/>
<path d="M92.7235 9.33203H91.5598C91.5598 9.90649 91.788 10.4574 92.1942 10.8636C92.6004 11.2698 93.1513 11.498 93.7258 11.498C94.3003 11.498 94.8512 11.2698 95.2574 10.8636C95.6636 10.4574 95.8918 9.90649 95.8918 9.33203H94.7397C94.7397 9.9657 94.4977 10.4841 93.7373 10.4841C92.9769 10.4841 92.7235 9.93113 92.7235 9.33203Z" fill="black"/>
<path d="M92.1935 12.3851H90.834L90.8455 18.6988H92.182L94.3249 15.6111C94.7051 15.0696 94.9816 14.6087 95.166 14.2977C95.1401 14.7389 95.1401 15.1813 95.166 15.6226V18.6988H96.5255V12.3851H95.2005L93.0461 15.4728C92.6774 16.0143 92.3893 16.4521 92.1935 16.7862V12.3851Z" fill="black"/>
<path d="M101.135 12.3853H105.57L105.156 13.618H102.529V18.6989H101.135V12.3853Z" fill="black"/>
<path fill-rule="evenodd" clip-rule="evenodd" d="M106.426 14.2579C106.288 14.663 106.236 15.0924 106.273 15.5187C106.236 15.9451 106.288 16.3744 106.426 16.7796C106.564 17.1847 106.785 17.5568 107.074 17.8722C107.363 18.1876 107.715 18.4394 108.106 18.6117C108.498 18.7839 108.921 18.8729 109.349 18.8729C109.777 18.8729 110.201 18.7839 110.592 18.6117C110.984 18.4394 111.336 18.1876 111.625 17.8722C111.914 17.5568 112.135 17.1847 112.273 16.7796C112.41 16.3744 112.462 15.9451 112.426 15.5187C112.462 15.0924 112.41 14.663 112.273 14.2579C112.135 13.8527 111.914 13.4806 111.625 13.1653C111.336 12.8499 110.984 12.598 110.592 12.4258C110.201 12.2535 109.777 12.1646 109.349 12.1646C108.921 12.1646 108.498 12.2535 108.106 12.4258C107.715 12.598 107.363 12.8499 107.074 13.1653C106.785 13.4806 106.564 13.8527 106.426 14.2579ZM109.361 13.3643C110.409 13.3643 110.997 14.2629 110.997 15.5187C110.997 16.786 110.421 17.6962 109.361 17.6962C108.301 17.6962 107.702 16.7745 107.702 15.5187C107.702 14.2629 108.312 13.3643 109.361 13.3643Z" fill="black"/>
<path d="M113.451 15.5877C113.439 15.1525 113.515 14.7192 113.674 14.314C113.834 13.9088 114.073 13.5401 114.379 13.2301C114.685 12.9201 115.05 12.6751 115.453 12.5101C115.856 12.345 116.288 12.2632 116.723 12.2696C117.307 12.259 117.883 12.4021 118.394 12.6844V13.8365C117.942 13.53 117.408 13.3692 116.862 13.3756C116.584 13.3739 116.308 13.4311 116.054 13.5435C115.799 13.6559 115.571 13.821 115.385 14.0278C115.199 14.2346 115.059 14.4784 114.974 14.7433C114.889 15.0082 114.861 15.2881 114.892 15.5646C114.892 16.9357 115.629 17.7076 116.781 17.7076C117.309 17.7017 117.827 17.5545 118.279 17.2813L118.671 18.2376C118.054 18.6406 117.333 18.853 116.597 18.8482C116.17 18.8656 115.745 18.7926 115.348 18.634C114.952 18.4755 114.593 18.2349 114.296 17.9282C113.999 17.6214 113.771 17.2554 113.625 16.854C113.479 16.4526 113.42 16.025 113.451 15.5992V15.5877Z" fill="black"/>
<path d="M120.051 21.8556C121.158 21.8556 122.171 21.5215 123.093 18.9868L125.455 12.3391H124.015L122.459 16.9476L120.501 12.3391H119.003L121.837 18.6412C121.342 20.162 120.743 20.6689 119.994 20.6689C119.673 20.6666 119.357 20.5876 119.072 20.4385L118.727 21.5906C119.144 21.7722 119.596 21.8625 120.051 21.8556Z" fill="black"/>
<path fill-rule="evenodd" clip-rule="evenodd" d="M125.916 17.5583H126.319C127.229 16.4061 127.667 15.0927 128.151 12.3853H131.803V17.5583H132.725V20.9109H131.435V18.6989H127.241V20.9109H125.939L125.916 17.5583ZM130.421 13.5374H129.153C128.982 14.9464 128.527 16.3062 127.817 17.5352H130.421V13.5374Z" fill="black"/>
<path fill-rule="evenodd" clip-rule="evenodd" d="M136.687 18.6067C137.003 18.4722 137.29 18.2764 137.53 18.0306L137.818 18.6643H138.97C138.864 18.0753 138.826 17.4762 138.855 16.8785V14.6434C138.855 13.065 137.968 12.3391 136.413 12.3391C135.579 12.3363 134.76 12.5549 134.039 12.9728L134.512 13.8945C135.019 13.5864 135.6 13.423 136.194 13.4221C136.943 13.4221 137.461 13.7447 137.461 14.5742V14.8392H136.309C135.755 14.8307 135.205 14.9407 134.696 15.1618C134.369 15.3103 134.093 15.5529 133.905 15.8587C133.716 16.1644 133.622 16.5194 133.636 16.8785C133.636 17.1427 133.689 17.4041 133.794 17.6468C133.898 17.8895 134.051 18.1082 134.243 18.2895C134.435 18.4709 134.662 18.6109 134.911 18.7011C135.159 18.7913 135.423 18.8298 135.687 18.814C136.031 18.8116 136.371 18.7411 136.687 18.6067ZM135.479 15.9337C135.797 15.7886 136.144 15.7177 136.493 15.7264H137.438V17.1089C137.072 17.4732 136.583 17.687 136.067 17.708C135.934 17.7233 135.798 17.7093 135.671 17.6669C135.544 17.6245 135.427 17.5548 135.329 17.4626C135.232 17.3704 135.155 17.258 135.106 17.1332C135.056 17.0085 135.034 16.8743 135.042 16.7402C135.03 16.5781 135.065 16.416 135.143 16.2731C135.22 16.1302 135.337 16.0124 135.479 15.9337Z" fill="black"/>
<path fill-rule="evenodd" clip-rule="evenodd" d="M140.445 12.6617C141.185 12.3974 141.964 12.261 142.75 12.2585C143.197 12.2089 143.651 12.2594 144.077 12.4064C144.503 12.5535 144.891 12.7933 145.213 13.1086C145.535 13.424 145.782 13.8069 145.938 14.2297C146.094 14.6525 146.154 15.1047 146.114 15.5535C146.142 15.9906 146.077 16.4287 145.925 16.8392C145.772 17.2498 145.535 17.6237 145.229 17.9366C144.922 18.2496 144.553 18.4945 144.146 18.6556C143.739 18.8167 143.302 18.8903 142.865 18.8716C142.519 18.8704 142.175 18.808 141.851 18.6873V21.8902H140.468L140.445 12.6617ZM142.75 17.6734C144.005 17.6734 144.662 16.8209 144.662 15.5074C144.695 15.2336 144.667 14.9558 144.58 14.694C144.493 14.4323 144.349 14.1931 144.158 13.9937C143.968 13.7942 143.735 13.6395 143.478 13.5407C143.22 13.4419 142.944 13.4014 142.669 13.4221C142.384 13.4184 142.101 13.4573 141.828 13.5373V17.5006C142.115 17.6409 142.43 17.712 142.75 17.708V17.6734Z" fill="black"/>
<path d="M147.339 14.314C147.18 14.7192 147.104 15.1525 147.116 15.5877V15.5992C147.084 16.0244 147.141 16.4518 147.285 16.8532C147.43 17.2545 147.657 17.6208 147.953 17.9278C148.249 18.2347 148.607 18.4755 149.003 18.6341C149.399 18.7928 149.824 18.8657 150.25 18.8482C150.99 18.8505 151.714 18.6384 152.336 18.2376L151.932 17.2813C151.485 17.5557 150.971 17.703 150.446 17.7076C149.294 17.7076 148.545 16.9357 148.545 15.5646C148.516 15.2875 148.545 15.0074 148.632 14.7425C148.718 14.4776 148.86 14.2339 149.047 14.0273C149.234 13.8207 149.462 13.6559 149.717 13.5436C149.972 13.4313 150.248 13.3741 150.527 13.3756C151.073 13.3692 151.607 13.53 152.059 13.8365V12.6844C151.548 12.4021 150.972 12.259 150.388 12.2696C149.953 12.2632 149.521 12.345 149.118 12.5101C148.715 12.6751 148.35 12.9201 148.044 13.2301C147.738 13.5401 147.499 13.9088 147.339 14.314Z" fill="black"/>
<path d="M154.8 13.5604H152.842V12.3853H158.487L158.107 13.5604H156.194V18.6989H154.8V13.5604Z" fill="black"/>
<path fill-rule="evenodd" clip-rule="evenodd" d="M161.954 12.3853H159.546L159.488 18.6758H162.011C163.924 18.6758 164.535 17.7541 164.535 16.8785C164.541 16.54 164.428 16.21 164.215 15.9467C164.002 15.6833 163.703 15.5033 163.371 15.4384C163.679 15.3712 163.953 15.1985 164.147 14.9502C164.34 14.7019 164.441 14.3936 164.431 14.0789C164.431 13.2724 163.832 12.3853 161.954 12.3853ZM163.198 16.8324C163.198 17.397 162.806 17.685 162.046 17.685H160.859V15.9799H162.15C162.829 15.9799 163.198 16.2679 163.198 16.8324ZM163.06 14.2171C163.06 14.7586 162.714 15.0236 162.046 15.0236L160.825 15.0466V13.4222H161.908C162.68 13.4222 163.06 13.6756 163.06 14.2171Z" fill="black"/>
<path fill-rule="evenodd" clip-rule="evenodd" d="M166.955 15.8761C166.945 16.1238 166.987 16.3709 167.078 16.6015C167.17 16.832 167.308 17.0408 167.485 17.2145C167.662 17.3882 167.873 17.5229 168.106 17.6099C168.338 17.6968 168.586 17.7342 168.833 17.7195C169.392 17.7216 169.941 17.5744 170.423 17.2932L170.838 18.2495C170.192 18.6399 169.45 18.8433 168.695 18.837C168.26 18.8611 167.825 18.7905 167.42 18.63C167.015 18.4694 166.65 18.2228 166.35 17.9073C166.05 17.5917 165.822 17.2147 165.681 16.8024C165.541 16.39 165.492 15.9521 165.538 15.5189C165.538 13.6179 166.598 12.2239 168.303 12.2239C170.008 12.2239 171.011 13.5027 171.011 15.542V15.8761H166.955ZM169.594 14.8968C169.594 14.0903 169.179 13.3069 168.292 13.3069C168.097 13.3182 167.907 13.369 167.733 13.456C167.558 13.5431 167.403 13.6646 167.277 13.8132C167.151 13.9619 167.057 14.1346 166.999 14.3208C166.942 14.5071 166.923 14.703 166.944 14.8968H169.594Z" fill="black"/>
<path d="M173.775 12.3853H172.381V18.6989H173.775V15.9453H176.436V18.6989H177.83V12.3853H176.436V14.7356H173.775V12.3853Z" fill="black"/>
<path d="M179.49 12.3853H180.884V14.7356H183.557V12.3853H184.94V18.6989H183.557V15.9453H180.884V18.6989H179.49V12.3853Z" fill="black"/>
<path d="M193.615 12.3853H192.233V18.6989H193.615V12.3853Z" fill="black"/>
<path fill-rule="evenodd" clip-rule="evenodd" d="M188.027 12.3853H186.61L186.633 18.7219H188.707C190.781 18.7219 191.415 17.7426 191.415 16.6827C191.415 15.6227 190.746 14.6895 188.73 14.6895C188.496 14.6727 188.261 14.6727 188.027 14.6895V12.3853ZM189.998 16.6827C189.998 17.2011 189.802 17.6159 188.65 17.6159L188.004 17.5698V15.761C188.219 15.7442 188.435 15.7442 188.65 15.761C189.733 15.761 189.998 16.1642 189.998 16.6827Z" fill="black"/>
<path d="M196.023 9.33203H197.175C197.175 9.93113 197.44 10.4841 198.2 10.4841C198.961 10.4841 199.203 9.9657 199.203 9.33203H200.355C200.355 9.90649 200.126 10.4574 199.72 10.8636C199.314 11.2698 198.763 11.498 198.189 11.498C197.614 11.498 197.063 11.2698 196.657 10.8636C196.251 10.4574 196.023 9.90649 196.023 9.33203Z" fill="black"/>
<path d="M195.297 12.3851H196.656V16.7862C196.852 16.4521 197.14 16.0143 197.509 15.4728L199.663 12.3851H201V18.6988H199.629V14.2977C199.59 14.3589 199.549 14.426 199.504 14.4984L199.495 14.5126L199.493 14.5153L199.486 14.5268L199.484 14.5305C199.303 14.821 199.073 15.1919 198.788 15.6111L196.633 18.6988H195.297V12.3851Z" fill="black"/>
<path fill-rule="evenodd" clip-rule="evenodd" d="M38.7494 30.547C39.0638 30.4145 39.3489 30.221 39.588 29.9776L39.8761 30.715H41.0282C40.9216 30.1261 40.8829 29.5269 40.913 28.9292V26.4982C40.913 24.9083 40.0258 24.194 38.4705 24.194C37.6383 24.1881 36.8194 24.4028 36.0971 24.8161L36.5695 25.7378C37.0816 25.4429 37.6607 25.2843 38.2516 25.277C39.0005 25.277 39.5189 25.5996 39.5189 26.4291V26.7056H38.3668C37.8109 26.6951 37.2598 26.8092 36.7538 27.0397C36.4266 27.1849 36.1505 27.4251 35.9615 27.7292C35.7725 28.0333 35.6793 28.3871 35.6939 28.7448C35.6836 29.0158 35.7304 29.2859 35.8311 29.5376C35.9319 29.7894 36.0845 30.0171 36.2789 30.2061C36.4733 30.3951 36.7053 30.5411 36.9598 30.6348C37.2143 30.7284 37.4856 30.7675 37.7562 30.7495C38.0974 30.7483 38.435 30.6795 38.7494 30.547ZM37.5373 27.8923C37.852 27.7369 38.2003 27.6617 38.5511 27.6734L39.4959 27.6388V29.0674C39.13 29.4317 38.6407 29.6455 38.1248 29.6665C37.9908 29.68 37.8554 29.6644 37.728 29.6206C37.6006 29.5768 37.4842 29.5059 37.3867 29.4129C37.2893 29.3198 37.2132 29.2068 37.1636 29.0815C37.114 28.9563 37.0921 28.8218 37.0995 28.6872C37.0888 28.5267 37.1243 28.3665 37.2019 28.2256C37.2795 28.0847 37.3959 27.969 37.5373 27.8923Z" fill="black"/>
<path d="M42.5254 24.3323H46.9611L46.5463 25.5535H43.9195V30.6459H42.5254V24.3323Z" fill="black"/>
<path fill-rule="evenodd" clip-rule="evenodd" d="M50.2798 24.1713C49.4955 24.1749 48.7171 24.3072 47.9756 24.563L47.9986 33.803H49.3812V30.6001C49.7077 30.7116 50.05 30.7699 50.395 30.773C50.8316 30.7915 51.2671 30.7182 51.6736 30.5578C52.08 30.3974 52.4482 30.1534 52.7545 29.8418C53.0607 29.5301 53.2981 29.1577 53.4513 28.7485C53.6046 28.3393 53.6702 27.9025 53.644 27.4664C53.6843 27.0175 53.6244 26.5654 53.4685 26.1425C53.3127 25.7197 53.0648 25.3368 52.7429 25.0215C52.421 24.7062 52.033 24.4663 51.607 24.3193C51.181 24.1723 50.7277 24.1217 50.2798 24.1713ZM52.1923 27.4548C52.1923 28.7567 51.5356 29.6093 50.2798 29.6093C49.9621 29.6113 49.6476 29.5445 49.3581 29.4135V25.4502C49.6308 25.367 49.9141 25.3243 50.1992 25.3234C50.4787 25.3014 50.7595 25.3427 51.0209 25.4441C51.2822 25.5455 51.5174 25.7045 51.7089 25.9093C51.9004 26.1141 52.0433 26.3593 52.127 26.6269C52.2107 26.8945 52.233 27.1775 52.1923 27.4548Z" fill="black"/>
<path fill-rule="evenodd" clip-rule="evenodd" d="M58.5288 29.9776C58.2879 30.2219 58.001 30.4159 57.6845 30.5484C57.3681 30.6809 57.0285 30.7493 56.6855 30.7496C56.4154 30.7677 56.1446 30.7286 55.8907 30.6349C55.6367 30.5411 55.4054 30.3949 55.2119 30.2057C55.0184 30.0165 54.8669 29.7886 54.7674 29.5369C54.668 29.2852 54.6227 29.0153 54.6347 28.7449C54.6201 28.3872 54.7133 28.0333 54.9023 27.7293C55.0914 27.4252 55.3674 27.185 55.6946 27.0397C56.2006 26.8093 56.7517 26.6951 57.3076 26.7056H58.4597V26.4291C58.4597 25.5996 57.9413 25.277 57.1924 25.277C56.6009 25.2801 56.0207 25.439 55.5103 25.7379L55.0379 24.8162C55.7598 24.4018 56.579 24.1871 57.4113 24.194C58.9667 24.194 59.8538 24.9083 59.8538 26.4982V28.9292C59.8238 29.5269 59.8624 30.1261 59.969 30.715H58.8169L58.5288 29.9776ZM57.4919 27.6734C57.1411 27.6618 56.7929 27.737 56.4781 27.8923C56.3367 27.9691 56.2203 28.0848 56.1427 28.2257C56.0652 28.3666 56.0296 28.5268 56.0403 28.6873C56.0309 28.8223 56.0514 28.9577 56.1003 29.0839C56.1492 29.2102 56.2253 29.324 56.3232 29.4175C56.4211 29.511 56.5383 29.5818 56.6666 29.6248C56.795 29.6679 56.9312 29.6821 57.0657 29.6666C57.5815 29.6455 58.0708 29.4318 58.4367 29.0675V27.6388L57.4919 27.6734Z" fill="black"/>
<path fill-rule="evenodd" clip-rule="evenodd" d="M63.749 24.1713C62.9646 24.1749 62.1862 24.3072 61.4447 24.563L61.4102 33.803H62.7927V30.6001C63.1192 30.7116 63.4615 30.7699 63.8066 30.7729C64.2431 30.7915 64.6787 30.7181 65.0851 30.5578C65.4915 30.3974 65.8598 30.1534 66.166 29.8418C66.4722 29.5301 66.7096 29.1576 66.8629 28.7485C67.0161 28.3393 67.0817 27.9025 67.0555 27.4664C67.0945 27.0229 67.0356 26.5762 66.883 26.158C66.7305 25.7397 66.4879 25.3601 66.1726 25.0458C65.8572 24.7315 65.4767 24.4903 65.0579 24.3392C64.6392 24.1881 64.1923 24.1308 63.749 24.1713ZM65.6615 27.4548C65.6615 28.7567 65.0048 29.6093 63.749 29.6093C63.4312 29.6113 63.1168 29.5445 62.8273 29.4134V25.4501C63.0999 25.367 63.3833 25.3243 63.6683 25.3234C63.9478 25.3014 64.2287 25.3427 64.49 25.4441C64.7514 25.5455 64.9865 25.7045 65.178 25.9093C65.3695 26.114 65.5124 26.3593 65.5961 26.6269C65.6798 26.8945 65.7021 27.1774 65.6615 27.4548Z" fill="black"/>
<path d="M68.4492 24.3323H69.8433V26.6711H72.5047V24.3323H73.8987V30.6459H72.5047V27.8923H69.8433V30.6459H68.4492V24.3323Z" fill="black"/>
<path d="M82.5732 24.3326H81.1792V30.6347H82.5732V24.3326Z" fill="black"/>
<path fill-rule="evenodd" clip-rule="evenodd" d="M76.9509 24.321H75.5684V30.6462H77.6307C79.716 30.6462 80.3381 29.6554 80.3381 28.6069C80.3381 27.5585 79.6699 26.6253 77.6537 26.6253H76.9509V24.321ZM78.9556 28.6184C78.9556 29.1369 78.7597 29.5517 77.6076 29.5517H76.9509V27.6968H77.6076C78.6906 27.6968 78.9556 28.1 78.9556 28.6184Z" fill="black"/>
<path d="M86.1219 21.2681C86.1219 21.8672 86.3754 22.4202 87.1358 22.4202C87.8962 22.4202 88.1381 21.8902 88.1381 21.2681H89.2902C89.2502 21.8167 89.0041 22.3299 88.6012 22.7045C88.1983 23.0791 87.6686 23.2873 87.1185 23.2873C86.5684 23.2873 86.0386 23.0791 85.6358 22.7045C85.2329 22.3299 84.9867 21.8167 84.9467 21.2681H86.1219Z" fill="black"/>
<path d="M84.2324 24.3327H85.5919V28.7338C85.7993 28.3997 86.0758 27.9619 86.456 27.4089L88.5989 24.3327H89.9354V30.6348H88.5644V27.5702C88.5388 27.125 88.5388 26.6788 88.5644 26.2337C88.38 26.5563 88.092 27.0056 87.7233 27.5586L85.5689 30.6348H84.2555L84.2324 24.3327Z" fill="black"/>
<path d="M94.8777 33.8029C95.9837 33.8029 96.9976 33.4688 97.9193 30.9341L100.293 24.2864H98.8525L97.2971 28.9525L95.327 24.2864H93.8408L96.6635 30.5769C96.168 32.0977 95.5689 32.6047 94.8201 32.6047C94.5006 32.5991 94.1862 32.5244 93.8984 32.3858L93.5527 33.5379C93.9705 33.7194 94.4222 33.8098 94.8777 33.8029Z" fill="black"/>
<path d="M101.283 24.3323H102.666V26.6711H105.339V24.3323H106.733V30.6459H105.339V27.8923H102.666V30.6459H101.283V24.3323Z" fill="black"/>
<path d="M109.764 24.3323H108.393L108.347 30.6344H109.683L111.907 27.5582C112.275 27.0052 112.552 26.5559 112.748 26.2333V30.6344H114.107V24.3323H112.771L110.616 27.4084C110.248 27.9614 109.971 28.3993 109.764 28.7334V24.3323Z" fill="black"/>
<path fill-rule="evenodd" clip-rule="evenodd" d="M115.755 24.3323H118.151C120.041 24.3323 120.64 25.2079 120.64 26.0259C120.648 26.3401 120.546 26.6473 120.353 26.8951C120.16 27.143 119.886 27.3162 119.58 27.3854C119.908 27.4524 120.203 27.6317 120.413 27.8924C120.623 28.1532 120.736 28.4791 120.732 28.814C120.732 29.6896 120.121 30.6113 118.22 30.6113H115.697L115.755 24.3323ZM118.313 29.6205C119.073 29.6205 119.465 29.344 119.465 28.7679C119.465 28.1919 119.108 27.9154 118.428 27.9154H117.137V29.6205H118.313ZM118.243 26.9706C118.912 26.9706 119.257 26.7056 119.257 26.1526C119.257 25.5996 118.981 25.3461 118.105 25.3461H117.034V26.9706H118.243Z" fill="black"/>
<path fill-rule="evenodd" clip-rule="evenodd" d="M123.367 28.549C123.276 28.3184 123.234 28.0713 123.244 27.8236H127.3V27.4895C127.3 25.4502 126.309 24.1714 124.592 24.1714C122.876 24.1714 121.827 25.5539 121.827 27.4664C121.781 27.8981 121.83 28.3345 121.97 28.7455C122.109 29.1565 122.336 29.5322 122.636 29.8467C122.935 30.1612 123.299 30.4069 123.702 30.5668C124.106 30.7268 124.539 30.7971 124.973 30.773C125.732 30.7852 126.479 30.5814 127.127 30.1854L126.712 29.2407C126.228 29.5189 125.68 29.6658 125.122 29.667C124.875 29.6817 124.627 29.6443 124.395 29.5574C124.163 29.4704 123.951 29.3357 123.774 29.162C123.597 28.9884 123.459 28.7795 123.367 28.549ZM124.569 25.2429C125.468 25.2429 125.883 26.0378 125.883 26.8328H123.221C123.202 26.6393 123.222 26.444 123.28 26.2584C123.338 26.0728 123.433 25.9008 123.559 25.7525C123.685 25.6042 123.839 25.4827 124.012 25.3952C124.186 25.3076 124.375 25.2558 124.569 25.2429Z" fill="black"/>
<path fill-rule="evenodd" clip-rule="evenodd" d="M128.624 24.563C129.366 24.3094 130.144 24.1771 130.928 24.1713C131.376 24.1214 131.829 24.1718 132.254 24.3189C132.68 24.466 133.067 24.706 133.388 25.0216C133.709 25.3372 133.956 25.7203 134.11 26.1432C134.265 26.5661 134.323 27.0181 134.281 27.4663C134.309 27.9019 134.245 28.3384 134.093 28.7476C133.941 29.1568 133.705 29.5294 133.399 29.8413C133.094 30.1531 132.726 30.3973 132.321 30.5578C131.915 30.7183 131.48 30.7916 131.043 30.7729C130.698 30.7699 130.356 30.7115 130.03 30.6001V33.803H128.636L128.624 24.563ZM130.928 29.6093C132.184 29.6093 132.841 28.7567 132.841 27.4548C132.881 27.1774 132.859 26.8944 132.775 26.6269C132.692 26.3593 132.549 26.114 132.357 25.9092C132.166 25.7045 131.931 25.5455 131.669 25.444C131.408 25.3426 131.127 25.3014 130.848 25.3234C130.562 25.3225 130.279 25.3653 130.007 25.4501V29.4134C130.296 29.5455 130.61 29.6124 130.928 29.6093Z" fill="black"/>
<path d="M135.295 27.492C135.294 26.9218 135.44 26.3607 135.719 25.863C136.003 25.356 136.415 24.9326 136.915 24.6351C137.414 24.3376 137.983 24.1764 138.564 24.1678C139.145 24.1592 139.718 24.3034 140.226 24.586V25.7381C139.778 25.4234 139.242 25.2581 138.694 25.2658C138.416 25.2659 138.142 25.3243 137.888 25.4373C137.634 25.5503 137.407 25.7154 137.222 25.9218C137.036 26.1282 136.896 26.3713 136.81 26.6354C136.724 26.8995 136.695 27.1787 136.724 27.4548C136.724 28.8258 137.473 29.5977 138.613 29.5977C139.14 29.5915 139.656 29.4486 140.111 29.183L140.514 30.1392C139.892 30.536 139.167 30.7441 138.429 30.7383C138.002 30.7578 137.576 30.6861 137.18 30.5281C136.783 30.3701 136.424 30.1294 136.128 29.822C135.831 29.5146 135.604 29.1476 135.46 28.7454C135.317 28.344 135.261 27.9168 135.295 27.492Z" fill="black"/>
<path d="M141.551 24.3323H142.91V28.7334C143.106 28.3993 143.394 27.9614 143.763 27.4084L145.917 24.3323H147.242V30.6344H145.86V27.5697C145.834 27.1246 145.834 26.6784 145.86 26.2333C145.675 26.5559 145.399 27.0052 145.018 27.5582L142.876 30.6344H141.539L141.551 24.3323Z" fill="black"/>
<path d="M148.371 25.4959H150.33V30.6459H151.724V25.4959H153.625L154.016 24.3323H148.371V25.4959Z" fill="black"/>
<path fill-rule="evenodd" clip-rule="evenodd" d="M156.114 27.8236C156.104 28.0713 156.146 28.3184 156.237 28.549C156.329 28.7795 156.467 28.9884 156.644 29.162C156.821 29.3357 157.032 29.4704 157.265 29.5574C157.497 29.6443 157.745 29.6817 157.992 29.667C158.551 29.6691 159.1 29.5219 159.582 29.2407L159.997 30.1854C159.353 30.581 158.609 30.7849 157.854 30.773C157.42 30.7969 156.986 30.7265 156.582 30.5666C156.178 30.4067 155.814 30.1612 155.514 29.847C155.214 29.5328 154.985 29.1572 154.844 28.7463C154.703 28.3353 154.653 27.8987 154.697 27.4664C154.697 25.5539 155.757 24.1714 157.462 24.1714C159.167 24.1714 160.17 25.4502 160.17 27.4895V27.8236H156.114ZM158.753 26.8328C158.753 26.0378 158.338 25.2429 157.451 25.2429C157.256 25.2542 157.066 25.305 156.891 25.392C156.717 25.4791 156.562 25.6006 156.436 25.7492C156.31 25.8979 156.216 26.0705 156.158 26.2568C156.101 26.443 156.082 26.639 156.103 26.8328H158.753Z" fill="black"/>
<path d="M160.986 25.4959H162.945V30.6459H164.339V25.4959H166.24L166.632 24.3323H160.986V25.4959Z" fill="black"/>
<path fill-rule="evenodd" clip-rule="evenodd" d="M11.8565 33.446L3.68797 25.289H3.67645L3.45754 25.0701C1.24349 22.8518 0 19.8456 0 16.7115C0 13.5773 1.24349 10.5712 3.45754 8.35286L11.8334 0L20.7048 8.89435C22.6219 11.0741 23.6726 13.8816 23.6577 16.7844C23.6428 19.6873 22.5634 22.4838 20.6241 24.6438L20.1287 25.1507L11.8565 33.446ZM11.8219 4.8389L5.88851 10.7838L5.86547 10.7032C5.08474 11.481 4.46589 12.4059 4.04468 13.4243C3.62347 14.4427 3.40825 15.5345 3.41146 16.6366C3.40957 17.0217 3.43266 17.4066 3.48059 17.7887L14.1262 7.14313L11.8219 4.8389ZM18.7696 11.9933L7.06368 23.7912L6.0959 22.835L5.88851 22.6391C5.50206 22.2404 5.15125 21.8086 4.84009 21.3488L16.5917 9.59715L17.7438 10.7493C18.1302 11.1252 18.4742 11.5424 18.7696 11.9933ZM11.8334 28.5841L17.7669 22.6391C18.6791 21.7344 19.3715 20.6324 19.791 19.418C20.2104 18.2036 20.3457 16.9091 20.1863 15.6342L9.52921 26.2798L11.8334 28.5841Z" fill="#218A3D"/>
<path d="M20.7169 29.4363C22.0362 27.96 22.9668 26.1781 23.4244 24.2518H23.5511C23.873 26.028 23.785 27.8543 23.2938 29.5914C22.8027 31.3285 21.9213 32.9305 20.7169 34.2752L20.2215 34.7821L11.9493 43.0774L3.56186 34.7015C2.21641 33.3487 1.21661 31.6918 0.647062 29.8708C0.0775171 28.0499 -0.0450118 26.1185 0.289844 24.2402H0.428099C0.925601 26.3708 2.01141 28.3189 3.56186 29.8626C3.6289 29.9412 3.7021 30.0144 3.78076 30.0815L11.9493 38.25L20.2215 29.9547L20.7169 29.4363Z" fill="#218A3D"/>
</svg>
